<svg height="512" viewBox="0 0 512 512" width="512" xmlns="http://www.w3.org/2000/svg" xmlns:xlink="http://www.w3.org/1999/xlink"><linearGradient id="a" gradientUnits="userSpaceOnUse" x1="-6.177" x2="486.533" y1="470.177" y2="-22.533" data-name="New Gradient Swatch 1"><stop offset="0" stop-color="#003f8a"/><stop offset=".518" stop-color="#00d7df"/><stop offset="1" stop-color="#006df0"/></linearGradient><linearGradient id="b" x1="-1.966" x2="490.744" xlink:href="#a" y1="474.388" y2="-18.322"/><linearGradient id="c" x1="-.177" x2="492.534" xlink:href="#a" y1="476.178" y2="-16.533"/><g><path d="m256 64c-79.4 0-144 64.6-144 144s64.6 144 144 144 144-64.6 144-144-64.6-144-144-144zm0 272a128 128 0 1 1 128-128 128.144 128.144 0 0 1 -128 128z" fill="url(#a)"/><path d="m256 8c-110.28 0-200 89.72-200 200 0 45.87 32.91 109.4 97.8 188.83a1274.075 1274.075 0 0 0 96.7 104.98 8 8 0 0 0 11 0 1274.075 1274.075 0 0 0 96.7-104.98c64.89-79.43 97.8-142.96 97.8-188.83 0-110.28-89.72-200-200-200zm0 476.85c-31.18-30.61-184-185.31-184-276.85 0-101.46 82.54-184 184-184s184 82.54 184 184c0 91.5-152.82 246.24-184 276.85z" fill="url(#b)"/><path d="m324.24 169.22-64-40a7.964 7.964 0 0 0 -8.48 0l-64 40a7.987 7.987 0 0 0 -3.76 6.78v88a8 8 0 0 0 8 8h128a8 8 0 0 0 8-8v-88a7.987 7.987 0 0 0 -3.76-6.78zm-60.24 86.78h-16v-32h16zm48 0h-32v-40a8 8 0 0 0 -8-8h-32a8 8 0 0 0 -8 8v40h-32v-75.57l56-35 56 35z" fill="url(#c)"/></g></svg>